#!OML:ASF I:\Actors\actors\Patient Classification 2\Patient 1\Session 1\actor1.ASF
:FULLY-SPECIFIED
:DEGREES
379
root -0.108928 18.6375 6.14042 3.03988 3.78438 -0.218779
lowerback 8.68635 3.68986 -2.0345
upperback -2.18678 4.66022 -0.5539
thorax -7.28967 2.35578 -0.138759
lowerneck -11.1543 -7.32658 -5.83702
upperneck 18.3926 -10.565 7.79263
head 8.27399 -4.69606 2.40082
rclavicle -5.59082e-015 8.74653e-015
rhumerus -44.8413 14.7783 -87.4971
rradius 65.1433
rwrist 21.8479
rhand -1.08836 -13.6375
rfingers 7.12502
rthumb 24.5475 -42.0839
lclavicle -5.59082e-015 8.74653e-015
lhumerus -50.876 -15.9378 91.7679
lradius 68.4109
lwrist 14.4261
lhand -14.0887 -30.7399
lfingers 7.12502
lthumb 12.0436 -1.10645
rfemur 7.33983 6.11279 12.5826
rtibia -1.74931e-014
rfoot -23.0912 -17.4749
rtoes -8.86319
lfemur -8.68478 -2.43739 -15.9166
ltibia 27.2196
lfoot -22.8471 10.1802
ltoes -53.2459
380
root -0.106784 18.6355 6.13615 2.95027 3.16126 -0.0737687
lowerback 8.50012 3.55163 -2.10066
upperback -2.12623 4.47271 -0.565986
thorax -7.11868 2.26693 -0.0707535
lowerneck -11.2402 -6.99636 -5.58024
upperneck 18.5081 -10.1055 7.52586
head 8.26473 -4.48242 2.32425
rclavicle -1.6201e-014 -3.18055e-015
rhumerus -45.5292 13.7048 -86.8782
rradius 64.5509
rwrist 21.7531
rhand -0.902694 -13.8918
rfingers 7.12502
rthumb 24.7255 -42.314
lclavicle -1.6201e-014 -3.18055e-015
lhumerus -50.6555 -15.5476 91.5174
lradius 67.7673
lwrist 14.2589
lhand -14.0361 -30.6562
lfingers 7.12502
lthumb 12.0943 -1.02574
rfemur 7.29722 6.73672 12.3798
rtibia 3.18055e-014
rfoot -22.9617 -17.4295
rtoes -9.41738
lfemur -8.42869 -2.17519 -16.0955
ltibia 27.1392
lfoot -22.8626 10.2919
ltoes -53.2026
381
root -0.106075 18.6329 6.13091 2.86683 2.49297 0.0723821
lowerback 8.33561 3.45432 -2.15066
upperback -2.07082 4.3395 -0.606797
thorax -6.96309 2.20298 -0.0524796
lowerneck -11.3577 -6.71102 -5.33072
upperneck 18.6393 -9.72123 7.32337
head 8.27826 -4.29757 2.25934
rclavicle -1.59897e-014 -1.37161e-014
rhumerus -46.2926 12.6473 -86.3476
rradius 64.0696
rwrist 21.6711
rhand -0.421235 -14.3272
rfingers 7.12502
rthumb 25.1868 -42.6853
lclavicle -1.59897e-014 -1.37161e-014
lhumerus -50.3912 -15.1639 91.2602
lradius 67.0967
lwrist 14.1269
lhand -14.0072 -30.5689
lfingers 7.12502
lthumb 12.1222 -0.940033
rfemur 7.23892 7.40396 12.1805
rtibia -1.59028e-015
rfoot -22.983 -17.3007
rtoes -9.17937
lfemur -8.17495 -1.81815 -16.2645
ltibia 27.0483
lfoot -22.857 10.3456
ltoes -53.1834
382
root -0.105613 18.6304 6.12661 2.77308 1.78239 0.233583
lowerback 8.24109 3.37937 -2.18721
upperback -2.05985 4.234 -0.670249
thorax -6.89279 2.1515 -0.0763951
lowerneck -11.4283 -6.44214 -5.12696
upperneck 18.7861 -9.35789 7.13834
head 8.29498 -4.12521 2.20613
rclavicle 1.01554e-013 1.98785e-015
rhumerus -47.107 11.6066 -85.8563
rradius 63.5503
rwrist 21.6305
rhand 0.241307 -14.2459
rfingers 7.12502
rthumb 25.8215 -42.5133
lclavicle 1.01554e-013 1.98785e-015
lhumerus -50.2081 -14.7748 91.024
lradius 66.4396
lwrist 14.0423
lhand -13.9812 -30.4756
lfingers 7.12502
lthumb 12.1473 -0.848299
rfemur 7.18602 8.11357 11.9688
rtibia -1.27222e-014
rfoot -23.0502 -17.1345
rtoes -8.37389
lfemur -7.90238 -1.47456 -16.4584
ltibia 26.9482
lfoot -22.8556 10.4489
ltoes -53.2148
383
root -0.105686 18.6305 6.12302 2.69699 1.07669 0.368118
lowerback 8.00187 3.30238 -2.33194
upperback -1.98428 4.12555 -0.641279
thorax -6.6862 2.1047 0.0679673
lowerneck -11.4719 -6.16162 -4.97539
upperneck 18.8377 -8.95658 6.92948
head 8.2752 -3.94353 2.15863
rclavicle -4.43352e-014 2.62396e-014
rhumerus -47.7968 10.7327 -85.2549
rradius 63.0731
rwrist 21.4516
rhand 0.352006 -13.9529
rfingers 7.12502
rthumb 25.9275 -42.2047
lclavicle -4.43352e-014 2.62396e-014
lhumerus -49.9638 -14.2738 90.8754
lradius 65.8051
lwrist 13.8655
lhand -14.0513 -30.3449
lfingers 7.12502
lthumb 12.0796 -0.713527
rfemur 7.11611 8.81632 11.7917
rtibia 4.77083e-015
rfoot -22.948 -17.068
rtoes -8.42441
lfemur -7.63753 -1.27461 -16.6292
ltibia 26.8422
lfoot -22.8376 10.6857
ltoes -53.2078
384
root -0.106875 18.63 6.1179 2.59828 0.390542 0.45902
lowerback 7.65094 3.20475 -2.54314
upperback -1.79856 3.9935 -0.532631
thorax -6.30887 2.04871 0.345527
lowerneck -11.5823 -5.84376 -4.79048
upperneck 18.8244 -8.49019 6.65972
head 8.23896 -3.73412 2.09092
rclavicle 5.20319e-014 -1.27222e-014
rhumerus -48.2851 10.0195 -84.6085
rradius 62.6301
rwrist 21.2586
rhand -0.169525 -14.1403
rfingers 7.12502
rthumb 25.428 -42.4643
lclavicle 5.20319e-014 -1.27222e-014
lhumerus -49.5402 -13.5977 90.7132
lradius 65.1165
lwrist 13.5255
lhand -14.161 -30.2863
lfingers 7.12502
lthumb 11.9739 -0.648737
rfemur 7.06523 9.50448 11.668
rtibia -2.22639e-014
rfoot -22.8656 -16.9839
rtoes -8.64457
lfemur -7.34492 -1.20027 -16.7477
ltibia 26.7304
lfoot -22.8801 10.9299
ltoes -53.0358
385
root -0.108419 18.6296 6.11197 2.48211 -0.27216 0.522093
lowerback 7.45578 3.11526 -2.60767
upperback -1.69045 3.87803 -0.488431
thorax -6.08749 1.99378 0.458409
lowerneck -11.577 -5.53165 -4.5078
upperneck 18.7678 -8.04064 6.33135
head 8.16393 -3.53486 1.98845
rclavicle 7.93275e-015 -4.77083e-015
rhumerus -48.8007 9.10669 -84.0275
rradius 62.0976
rwrist 21.2665
rhand -0.901085 -14.571
rfingers 7.12502
rthumb 24.727 -42.9929
lclavicle 7.93275e-015 -4.77083e-015
lhumerus -49.2302 -13.0224 90.515
lradius 64.4008
lwrist 13.258
lhand -14.2299 -30.2195
lfingers 7.12502
lthumb 11.9074 -0.578153
rfemur 7.02616 10.1733 11.5771
rtibia 0
rfoot -22.8286 -16.8705
rtoes -8.82851
lfemur -7.04285 -1.17826 -16.8249
ltibia 26.6104
lfoot -22.9143 11.1616
ltoes -53.0232
386
root -0.111169 18.6307 6.10494 2.41872 -0.863489 0.615146
lowerback 7.3499 3.03234 -2.64115
upperback -1.68938 3.76684 -0.502647
thorax -6.02365 1.93988 0.482865
lowerneck -11.4303 -5.25736 -4.18027
upperneck 18.6886 -7.65156 5.98115
head 8.05975 -3.3663 1.86727
rclavicle -2.56122e-014 -1.59028e-014
rhumerus -49.4093 8.03155 -83.4846
rradius 61.5316
rwrist 21.2128
rhand -1.43815 -14.8753
rfingers 7.12502
rthumb 24.2122 -43.3669
lclavicle -2.56122e-014 -1.59028e-014
lhumerus -49.0518 -12.6368 90.3547
lradius 63.6467
lwrist 13.1649
lhand -14.204 -30.1077
lfingers 7.12502
lthumb 11.9324 -0.467801
rfemur 6.92999 10.7626 11.4508
rtibia 1.27222e-014
rfoot -22.728 -16.7862
rtoes -9.18012
lfemur -6.80568 -1.27458 -16.9088
ltibia 26.4804
lfoot -22.9176 11.3656
ltoes -53.1491
387
root -0.115708 18.6314 6.09765 2.38074 -1.36124 0.697557
lowerback 7.39218 2.94354 -2.60257
upperback -1.80842 3.64465 -0.577525
thorax -6.16175 1.87843 0.392823
lowerneck -11.3797 -5.00339 -3.73236
upperneck 18.8963 -7.30704 5.52373
head 8.06492 -3.21319 1.68215
rclavicle 3.71168e-014 3.37934e-015
rhumerus -50.0683 6.84263 -83.0411
rradius 60.8497
rwrist 21.0772
rhand -1.57858 -15.131
rfingers 7.12502
rthumb 24.0775 -43.6404
lclavicle 3.71168e-014 3.37934e-015
lhumerus -49.0565 -12.4007 90.1802
lradius 62.8846
lwrist 13.1085
lhand -14.1397 -30.0779
lfingers 7.12502
lthumb 11.9944 -0.441621
rfemur 6.8228 11.256 11.3368
rtibia 6.36111e-015
rfoot -22.6959 -16.6564
rtoes -8.99527
lfemur -6.60439 -1.50997 -16.9515
ltibia 26.362
lfoot -22.9211 11.4585
ltoes -53.1725
388
root -0.121306 18.6325 6.09088 2.32606 -1.86943 0.709632
lowerback 7.48451 2.86346 -2.49724
upperback -1.94314 3.53931 -0.641917
thorax -6.34256 1.82302 0.271299
lowerneck -11.3731 -4.75904 -3.32797
upperneck 19.1759 -6.98371 5.13423
head 8.11068 -3.06458 1.52235
rclavicle 4.48011e-014 4.37326e-015
rhumerus -50.6559 5.58353 -82.6009
rradius 60.0729
rwrist 21.025
rhand -1.51023 -15.297
rfingers 7.12502
rthumb 24.1431 -43.7977
lclavicle 4.48011e-014 4.37326e-015
lhumerus -49.1037 -12.1585 89.9893
lradius 62.1105
lwrist 12.9985
lhand -14.1977 -30.159
lfingers 7.12502
lthumb 11.9384 -0.519434
rfemur 6.73614 11.7649 11.302
rtibia -2.38542e-014
rfoot -22.7376 -16.5091
rtoes -8.6151
lfemur -6.43568 -1.63644 -16.9208
ltibia 26.3117
lfoot -22.7776 11.6296
ltoes -53.9615
